<?xml version="1.0" encoding="UTF-8" standalone="no"?>
<!-- Created with Inkscape (http://www.inkscape.org/) -->

<svg
   xmlns:dc="http://purl.org/dc/elements/1.1/"
   xmlns:cc="http://creativecommons.org/ns#"
   xmlns:rdf="http://www.w3.org/1999/02/22-rdf-syntax-ns#"
   xmlns:svg="http://www.w3.org/2000/svg"
   xmlns="http://www.w3.org/2000/svg"
   xmlns:sodipodi="http://sodipodi.sourceforge.net/DTD/sodipodi-0.dtd"
   xmlns:inkscape="http://www.inkscape.org/namespaces/inkscape"
   width="550"
   height="550"
   viewBox="0 0 145.52083 145.52084"
   version="1.1"
   id="svg42"
   inkscape:version="0.92.4 (5da689c313, 2019-01-14)"
   sodipodi:docname="logosvg.svg">
  <defs
     id="defs36" />
  <sodipodi:namedview
     id="base"
     pagecolor="#ffffff"
     bordercolor="#666666"
     borderopacity="1.0"
     inkscape:pageopacity="0.0"
     inkscape:pageshadow="2"
     inkscape:zoom="0.7"
     inkscape:cx="400"
     inkscape:cy="280.91063"
     inkscape:document-units="mm"
     inkscape:current-layer="layer1"
     showgrid="false"
     units="px"
     inkscape:window-width="1366"
     inkscape:window-height="745"
     inkscape:window-x="-8"
     inkscape:window-y="-8"
     inkscape:window-maximized="1" />
  <metadata
     id="metadata39">
    <rdf:RDF>
      <cc:Work
         rdf:about="">
        <dc:format>image/svg+xml</dc:format>
        <dc:type
           rdf:resource="http://purl.org/dc/dcmitype/StillImage" />
        <dc:title></dc:title>
      </cc:Work>
    </rdf:RDF>
  </metadata>
  <g
     inkscape:label="Layer 1"
     inkscape:groupmode="layer"
     id="layer1"
     transform="translate(0,-151.47913)">
    <g
       id="g921"
       transform="matrix(0.26458333,0,0,0.26458333,5.0647507,157.14877)"
       style="fill:#ffd5d5;fill-opacity:1">
      <g
         id="g864"
         style="fill:#ffd5d5;fill-opacity:1">
        <g
           id="g862"
           style="fill:#ffd5d5;fill-opacity:1">
          <path
             id="path860"
             d="m 504.951,333.28 -51.756,-32.347 51.731,-32.198 c 4.396,-2.736 7.07,-7.544 7.075,-12.721 0.005,-5.177 -2.66,-9.99 -7.05,-12.734 l -51.756,-32.347 51.731,-32.198 c 4.393,-2.734 7.066,-7.539 7.074,-12.712 0.008,-5.174 -2.651,-9.987 -7.036,-12.734 l -241,-151 c -4.871,-3.052 -11.057,-3.052 -15.928,0 l -241,151 c -4.385,2.747 -7.044,7.56 -7.036,12.734 0.008,5.174 2.682,9.979 7.074,12.712 L 58.805,210.933 7.051,243.28 c -4.39,2.744 -7.055,7.557 -7.05,12.734 0.005,5.177 2.679,9.985 7.074,12.721 L 58.806,300.933 7.051,333.28 c -4.383,2.74 -7.047,7.543 -7.05,12.712 -0.003,5.169 2.655,9.975 7.036,12.719 l 241,151 c 2.436,1.526 5.199,2.289 7.964,2.289 2.765,0 5.528,-0.763 7.964,-2.289 l 241,-151 c 4.381,-2.744 7.039,-7.551 7.036,-12.719 -0.003,-5.168 -2.667,-9.971 -7.05,-12.712 z M 43.32,165.959 256.001,32.702 468.682,165.959 256.001,298.332 Z m 0.026,90.016 43.822,-27.389 160.908,100.15 c 4.852,3.02 11,3.02 15.852,0 l 160.908,-100.15 43.822,27.389 -212.657,132.357 z M 256.001,479.3 43.277,346.017 l 43.89,-27.431 160.908,100.15 c 4.85,3.02 11,3.021 15.852,0 l 160.908,-100.15 43.89,27.431 z"
             inkscape:connector-curvature="0"
             style="fill:#ffd5d5;fill-opacity:1" />
        </g>
      </g>
      <g
         id="g866"
         style="fill:#ffd5d5;fill-opacity:1" />
      <g
         id="g868"
         style="fill:#ffd5d5;fill-opacity:1" />
      <g
         id="g870"
         style="fill:#ffd5d5;fill-opacity:1" />
      <g
         id="g872"
         style="fill:#ffd5d5;fill-opacity:1" />
      <g
         id="g874"
         style="fill:#ffd5d5;fill-opacity:1" />
      <g
         id="g876"
         style="fill:#ffd5d5;fill-opacity:1" />
      <g
         id="g878"
         style="fill:#ffd5d5;fill-opacity:1" />
      <g
         id="g880"
         style="fill:#ffd5d5;fill-opacity:1" />
      <g
         id="g882"
         style="fill:#ffd5d5;fill-opacity:1" />
      <g
         id="g884"
         style="fill:#ffd5d5;fill-opacity:1" />
      <g
         id="g886"
         style="fill:#ffd5d5;fill-opacity:1" />
      <g
         id="g888"
         style="fill:#ffd5d5;fill-opacity:1" />
      <g
         id="g890"
         style="fill:#ffd5d5;fill-opacity:1" />
      <g
         id="g892"
         style="fill:#ffd5d5;fill-opacity:1" />
      <g
         id="g894"
         style="fill:#ffd5d5;fill-opacity:1" />
    </g>
  </g>
</svg>
